<?xml version="1.0" encoding="UTF-8"?>
<svg version="1.1" xmlns="http://www.w3.org/2000/svg" width="1300" height="300">
<path d="M0 0 C0.7922866 -0.00274015 1.5845732 -0.00548031 2.40086849 -0.00830349 C5.0826443 -0.01385888 7.76386714 0.00216955 10.44559669 0.01790237 C12.401445 0.01834834 14.35729398 0.01746623 16.31314123 0.01538157 C20.62348189 0.01384718 24.93366135 0.02218011 29.24397421 0.03766155 C36.44270074 0.06350549 43.6413649 0.06823173 50.84013176 0.0713768 C61.69046178 0.07850458 72.5407195 0.09667738 83.39101982 0.12163925 C99.97745157 0.15961219 116.56387436 0.17963453 133.15034042 0.19544289 C141.33559681 0.20324478 149.5208525 0.21172751 157.70610809 0.22032166 C158.54355567 0.22119539 159.38100325 0.22206913 160.24382803 0.22296935 C173.55548434 0.23694825 186.86713354 0.25449313 200.17878342 0.27358246 C259.66007438 0.35825236 319.14130514 0.38792088 378.62265164 0.40170038 C401.72711613 0.40705813 424.83158046 0.41309873 447.93604469 0.41945267 C449.88525248 0.41998387 449.88525248 0.41998387 451.8738382 0.4205258 C493.30990381 0.43188188 534.74595821 0.45138769 576.18201637 0.47829056 C577.18737951 0.47894211 577.18737951 0.47894211 578.21305302 0.47960682 C606.90517297 0.49821098 635.59729196 0.51815416 664.28941042 0.53892968 C678.10027611 0.54892937 691.9111419 0.55877929 705.72200779 0.56850063 C707.80064549 0.56996548 709.87928318 0.57143609 711.95792088 0.57290766 C744.28566969 0.59576091 776.61341583 0.61494639 808.94117165 0.62422562 C809.64818013 0.62442858 810.35518861 0.62463155 811.08362158 0.62484066 C822.51021788 0.62809942 833.93681426 0.63106339 845.36341065 0.63399006 C878.31660404 0.64243487 911.26979075 0.65292233 944.22297668 0.6774292 C944.89903362 0.67793099 945.57509056 0.67843279 946.27163408 0.67894979 C960.4324561 0.68949745 974.59327724 0.7009568 988.75409762 0.71352197 C995.37468688 0.71939205 1001.99527625 0.72511692 1008.61586571 0.73075485 C1009.91748018 0.73186831 1011.21909466 0.73298177 1012.560152 0.73412897 C1033.40903811 0.75158956 1054.25790505 0.75545147 1075.1067975 0.75407504 C1095.8727631 0.75299586 1116.63867907 0.76628838 1137.40462579 0.79461011 C1149.713522 0.81095877 1162.02230585 0.81611111 1174.33120892 0.80541758 C1182.53372305 0.79937892 1190.73613952 0.80769975 1198.93863074 0.82793813 C1203.61372873 0.83905757 1208.28859702 0.84374661 1212.96369596 0.83095828 C1217.20944118 0.81946514 1221.45474368 0.82618571 1225.70044616 0.84774653 C1227.22994984 0.8522698 1228.75949149 0.85003065 1230.28897132 0.84036659 C1232.36051593 0.82824316 1234.43052325 0.84065356 1236.5019871 0.85923982 C1238.22409883 0.8601757 1238.22409883 0.8601757 1239.9810007 0.86113049 C1244.71656282 1.61001279 1247.8578476 3.9014223 1251.00184155 7.45335865 C1252.76017749 11.90429757 1252.56713126 16.16378749 1252.5387516 20.90784073 C1252.54413714 21.98185373 1252.54952268 23.05586673 1252.55507141 24.16242558 C1252.56939883 27.76754504 1252.56223528 31.37229979 1252.55512428 34.97743607 C1252.56082532 37.55954154 1252.56778854 40.14164448 1252.57592201 42.72374344 C1252.59311934 49.01301686 1252.59394811 55.30219042 1252.58870911 61.59148126 C1252.58466792 66.70335405 1252.58611035 71.81519733 1252.59145737 76.92706871 C1252.59220579 77.65457893 1252.59295421 78.38208915 1252.59372531 79.13164513 C1252.59525679 80.60957408 1252.59679513 82.08750302 1252.59834028 83.56543196 C1252.61206868 97.42559647 1252.60662524 111.28570454 1252.59515507 125.14586777 C1252.58522219 137.82564429 1252.59816365 150.50527489 1252.62208926 163.1850289 C1252.64647215 176.20523425 1252.65609014 189.22537161 1252.64943653 202.24559933 C1252.64594252 209.55523074 1252.64818835 216.86474993 1252.66568756 224.17436409 C1252.68193634 231.04690218 1252.67724052 237.91915679 1252.65838242 244.79168701 C1252.6546867 247.31604775 1252.6578334 249.84042901 1252.6682682 252.36477089 C1252.6814119 255.80686103 1252.66998817 259.24801777 1252.65227699 262.69006729 C1252.661882 263.69249905 1252.67148701 264.6949308 1252.68138307 265.72773927 C1252.6210098 271.41791431 1252.13303811 274.96275971 1248.15107155 279.36244583 C1243.82026287 282.72665939 1239.80379667 282.78597403 1234.52309716 282.74079466 C1233.64954219 282.74525007 1232.77598722 282.74970548 1231.87596089 282.75429591 C1228.92837798 282.76563172 1225.98125489 282.75548287 1223.03367233 282.74555588 C1220.89817563 282.74928996 1218.76268088 282.75433753 1216.62719005 282.76058471 C1210.72112819 282.77400019 1204.81520697 282.76858147 1198.90914119 282.76025122 C1192.49811174 282.75447135 1186.08711023 282.76597564 1179.67608821 282.7753129 C1168.42737829 282.78979548 1157.17870416 282.79205084 1145.92998695 282.78735352 C1133.85724236 282.78235756 1121.78452471 282.78383251 1109.71178246 282.79323578 C1108.94991631 282.79382426 1108.18805016 282.79441274 1107.40309716 282.79501905 C1104.30025033 282.79743553 1101.19740355 282.7998956 1098.0945568 282.8024117 C1066.57484637 282.82793809 1035.05515303 282.83389781 1003.53543366 282.83200056 C999.17804155 282.83174094 994.82064943 282.83150227 990.46325731 282.83128548 C989.59781319 282.83124144 988.73236906 282.8311974 987.84069936 282.83115203 C968.67398805 282.83028917 949.50727942 282.8350774 930.34056915 282.84096739 C925.96611003 282.84230835 921.59165091 282.84360823 917.21719178 282.84491304 C915.46158997 282.84543756 913.70598816 282.84596215 911.95038635 282.84648681 C911.08017603 282.84674659 910.20996572 282.84700637 909.3133854 282.84727402 C907.55321966 282.8478002 905.79305392 282.84832787 904.03288819 282.84885703 C854.07653034 282.86385766 804.12017462 282.87262125 754.16381454 282.86790085 C753.23842035 282.86781498 752.31302616 282.86772912 751.35958972 282.86764065 C741.04006518 282.86668122 730.72054066 282.86564302 720.40101613 282.86458176 C717.5764578 282.86429224 714.75189946 282.86400276 711.92734113 282.86371336 C710.04275199 282.86351936 708.15816285 282.86332386 706.27357371 282.86312687 C646.66973487 282.85691004 587.06593663 282.87177297 527.4621067 282.90443802 C512.44347646 282.91266097 497.42484618 282.92081082 482.40621567 282.92853928 C481.48151101 282.92901547 480.55680635 282.92949167 479.60408034 282.92998229 C451.11358916 282.94456378 422.62310135 282.95301315 394.13260651 282.95510483 C393.23839978 282.95517115 392.34419306 282.95523746 391.42288917 282.95530579 C371.79493275 282.95669971 352.16697658 282.95658873 332.53902018 282.9550957 C325.51616832 282.95457357 318.49331645 282.95415641 311.47046458 282.95378753 C309.72329819 282.95369431 307.97613179 282.95359517 306.2289654 282.95349009 C278.36613427 282.95186365 250.50333333 282.96470289 222.64051003 282.98464786 C194.58514976 283.00461274 166.52983457 283.00837441 138.47447184 282.99002212 C134.60070223 282.98748818 130.72693254 282.98512575 126.85316277 282.98286438 C126.0937737 282.982414 125.33438463 282.98196362 124.55198377 282.98149959 C112.51074237 282.97481206 100.46957571 282.98492723 88.42834698 283.00197576 C76.59813401 283.01837464 64.76804369 283.01660094 52.9378354 282.9965774 C46.60525862 282.98637406 40.27295157 282.98423708 33.94039108 283.00389808 C28.18611733 283.02160348 22.43234241 283.01654369 16.67809423 282.99286969 C14.60298974 282.98839822 12.52784638 282.99240983 10.45277949 283.00567804 C7.64448887 283.02242655 4.83796282 283.00856216 2.02974427 282.98689032 C0.82087359 283.00517529 0.82087359 283.00517529 -0.41241872 283.02382965 C-6.17530016 282.93120659 -9.60106015 281.23608758 -13.84892845 277.36244583 C-17.88368055 272.82127448 -17.27108457 267.58020343 -17.23660851 261.81705093 C-17.24199404 260.74303793 -17.24737958 259.66902493 -17.25292832 258.56246608 C-17.26725573 254.95734663 -17.26009219 251.35259187 -17.25298119 247.7474556 C-17.25868222 245.16535013 -17.26564544 242.58324718 -17.27377892 240.00114822 C-17.29097624 233.7118748 -17.29180502 227.42270124 -17.28656601 221.1334104 C-17.28252483 216.02153761 -17.28396725 210.90969433 -17.28931427 205.79782295 C-17.29006269 205.07031273 -17.29081111 204.34280251 -17.29158222 203.59324653 C-17.29311369 202.11531758 -17.29465204 200.63738864 -17.29619718 199.1594597 C-17.30992559 185.29929519 -17.30448214 171.43918712 -17.29301197 157.57902389 C-17.28307909 144.89924737 -17.29602055 132.21961677 -17.31994616 119.53986276 C-17.34432905 106.51965742 -17.35394705 93.49952005 -17.34729344 80.47929233 C-17.34379942 73.16966092 -17.34604525 65.86014173 -17.36354446 58.55052757 C-17.37979324 51.67798948 -17.37509742 44.80573487 -17.35623932 37.93320465 C-17.35254361 35.40884391 -17.3556903 32.88446265 -17.36612511 30.36012077 C-17.37926881 26.91803063 -17.36784508 23.4768739 -17.3501339 20.03482437 C-17.3597389 19.03239262 -17.36934391 18.02996086 -17.37923998 16.99715239 C-17.3188667 11.30697735 -16.83089501 7.76213196 -12.84892845 3.36244583 C-8.68524256 0.19931143 -5.0596598 -0.05922507 0 0 Z " fill="#000000" transform="translate(31.848928451538086,6.637554168701172)"/>
<path d="M0 0 C0.95160665 -0.00782324 1.90321329 -0.01564648 2.8836565 -0.02370679 C4.45498608 -0.01366855 4.45498608 -0.01366855 6.05805969 -0.00342751 C7.16923251 -0.00810748 8.28040533 -0.01278745 9.42525005 -0.01760924 C13.16796306 -0.02962487 16.91031434 -0.02007617 20.6530304 -0.01066017 C23.32838519 -0.01472296 26.00371463 -0.01995417 28.67906189 -0.02659035 C35.20289559 -0.03994977 41.72662592 -0.03704016 48.25046372 -0.02835242 C53.55119569 -0.02158495 58.85189862 -0.02065509 64.15263367 -0.02392387 C65.2830721 -0.02461342 65.2830721 -0.02461342 66.43634766 -0.0253169 C67.96718988 -0.02627605 69.49803208 -0.02724869 71.02887428 -0.02823468 C85.39301798 -0.03679504 99.7571043 -0.02694432 114.12123859 -0.01083358 C126.45380471 0.0025702 138.78628612 0.00024229 151.11885071 -0.01358986 C165.43061246 -0.02963428 179.74232388 -0.035971 194.05409336 -0.02675307 C195.57939211 -0.02579739 197.10469086 -0.02485428 198.62998962 -0.02392387 C199.38052052 -0.02346105 200.13105141 -0.02299822 200.90432566 -0.02252137 C206.20040478 -0.01992806 211.49645206 -0.0243098 216.79252625 -0.03136253 C223.24423498 -0.03976512 229.69583418 -0.03752367 236.14753032 -0.0215203 C239.44107833 -0.0136207 242.73440516 -0.01218177 246.02795792 -0.02046776 C249.59367798 -0.02861398 253.15887711 -0.01844525 256.7245636 -0.00342751 C258.29589318 -0.01346575 258.29589318 -0.01346575 259.89896679 -0.02370679 C260.85057343 -0.01588355 261.80218008 -0.00806031 262.78262329 0 C263.60612935 0.00048706 264.42963541 0.00097411 265.2780962 0.00147593 C267.95497933 0.4778283 268.82911654 1.16758884 270.39131165 3.37752342 C270.76735914 5.38173437 270.76735914 5.38173437 270.76883507 7.72071648 C270.77665831 8.6131054 270.78448155 9.50549432 270.79254186 10.42492533 C270.7858497 11.40633226 270.77915753 12.38773919 270.77226257 13.39888573 C270.77694255 14.44063816 270.78162252 15.48239058 270.78644431 16.55571127 C270.79845694 20.06350025 270.78891246 23.57090307 270.77949524 27.0786953 C270.78355815 29.5865559 270.78889844 32.09441472 270.79542542 34.60227013 C270.80771255 40.71703917 270.80587595 46.83166406 270.79718749 52.94643509 C270.79041939 57.91488307 270.78949043 62.88330007 270.79275894 67.85175133 C270.79321864 68.55819581 270.79367834 69.26464028 270.79415197 69.99249217 C270.79511112 71.42750538 270.79608376 72.86251859 270.79706974 74.29753178 C270.80562964 87.76177988 270.79578012 101.22596675 270.77966864 114.6902048 C270.7662649 126.24958256 270.76859283 137.80886995 270.78242493 149.36824608 C270.79847018 162.78346766 270.80480561 176.19863554 270.79558814 189.61386538 C270.79463246 191.04367541 270.79368935 192.47348546 270.79275894 193.90329552 C270.79229612 194.60683654 270.79183329 195.31037755 270.79135644 196.035238 C270.78876337 200.99919465 270.79314434 205.96311732 270.8001976 210.92706871 C270.80947747 217.60501844 270.80289493 224.28277065 270.78551483 230.96071243 C270.78153549 233.41698929 270.78270858 235.87328047 270.78930283 238.3295517 C270.7974512 241.67195191 270.78727782 245.01379669 270.77226257 248.35616112 C270.77895474 249.33756805 270.7856469 250.31897498 270.79254186 251.33012152 C270.78471862 252.22251044 270.77689538 253.11489936 270.76883507 254.03433037 C270.76810448 255.19212651 270.76810448 255.19212651 270.76735914 256.37331247 C270.27782107 258.9823913 269.54730239 259.84751816 267.39131165 261.37752342 C265.2780962 261.75357091 265.2780962 261.75357091 262.78262329 261.75504684 C261.83101665 261.76287009 260.87941 261.77069333 259.89896679 261.77875364 C258.85141374 261.77206147 257.80386068 261.76536931 256.7245636 261.75847435 C255.05780437 261.76549431 255.05780437 261.76549431 253.35737324 261.77265608 C249.61466023 261.78467171 245.87230895 261.77512302 242.1295929 261.76570702 C239.4542381 261.7697698 236.77890866 261.77500102 234.1035614 261.78163719 C227.5797277 261.79499661 221.05599737 261.792087 214.53215957 261.78339927 C209.2314276 261.77663179 203.93072467 261.77570194 198.62998962 261.77897072 C197.4995512 261.77966027 197.4995512 261.77966027 196.34627563 261.78036375 C194.81543341 261.78132289 193.28459121 261.78229553 191.75374901 261.78328152 C177.38960531 261.79184188 163.02551899 261.78199117 148.6613847 261.76588042 C136.32881858 261.75247664 123.99633717 261.75480456 111.66377258 261.7686367 C97.35201083 261.78468113 83.04029941 261.79101785 68.72852993 261.78179991 C67.20323118 261.78084424 65.67793243 261.77990113 64.15263367 261.77897072 C63.40210277 261.77850789 62.65157188 261.77804507 61.87829763 261.77756821 C56.58221851 261.7749749 51.28617123 261.77935665 45.99009705 261.78640938 C39.53838831 261.79481197 33.08678911 261.79257052 26.63509297 261.77656715 C23.34154496 261.76866755 20.04821813 261.76722862 16.75466537 261.7755146 C13.18894531 261.78366082 9.62374618 261.7734921 6.05805969 261.75847435 C4.48673011 261.7685126 4.48673011 261.7685126 2.8836565 261.77875364 C1.93204986 261.7709304 0.98044321 261.76310715 0 261.75504684 C-0.82350606 261.75455979 -1.64701212 261.75407273 -2.49547291 261.75357091 C-5.17235604 261.27721854 -6.04649325 260.587458 -7.60868835 258.37752342 C-7.98473585 256.37331247 -7.98473585 256.37331247 -7.98621178 254.03433037 C-7.99403502 253.14194145 -8.00185826 252.24955253 -8.00991857 251.33012152 C-8.00322641 250.34871459 -7.99653424 249.36730765 -7.98963928 248.35616112 C-7.99431925 247.31440869 -7.99899923 246.27265626 -8.00382102 245.19933558 C-8.01583365 241.69154659 -8.00628916 238.18414377 -7.99687195 234.67635155 C-8.00093486 232.16849094 -8.00627515 229.66063212 -8.01280212 227.15277672 C-8.02508925 221.03800767 -8.02325266 214.92338278 -8.0145642 208.80861175 C-8.0077961 203.84016378 -8.00686714 198.87174677 -8.01013565 193.90329552 C-8.01059535 193.19685104 -8.01105505 192.49040656 -8.01152868 191.76255468 C-8.01248783 190.32754146 -8.01346047 188.89252826 -8.01444645 187.45751506 C-8.02300635 173.99326697 -8.01315683 160.5290801 -7.99704535 147.06484205 C-7.98364161 135.50546428 -7.98596954 123.9461769 -7.99980164 112.38680077 C-8.01584689 98.97157919 -8.02218232 85.5564113 -8.01296484 72.14118147 C-8.01200917 70.71137143 -8.01106606 69.28156138 -8.01013565 67.85175133 C-8.00967282 67.14821031 -8.00921 66.44466929 -8.00873315 65.71980885 C-8.00614008 60.75585219 -8.01052105 55.79192952 -8.01757431 50.82797813 C-8.02685418 44.1500284 -8.02027164 37.47227619 -8.00289154 30.79433441 C-7.9989122 28.33805756 -8.00008529 25.88176638 -8.00667953 23.42549515 C-8.01482791 20.08309494 -8.00465453 16.74125015 -7.98963928 13.39888573 C-7.99633145 12.4174788 -8.00302361 11.43607186 -8.00991857 10.42492533 C-8.00209533 9.53253641 -7.99427209 8.64014749 -7.98621178 7.72071648 C-7.98572472 6.94885238 -7.98523766 6.17698829 -7.98473585 5.38173437 C-7.12201731 0.78372487 -4.27867392 0.00253059 0 0 Z " fill="#FEFEFE" transform="translate(32.60868835449219,16.62247657775879)"/>
<path d="M0 0 C7.76158281 3.91373531 11.80180846 11.45645557 15.6875 18.875 C19.79561067 26.52532268 24.04070272 34.07428156 28.4375 41.5625 C29.63031616 43.59629093 30.82302285 45.63014607 32.015625 47.6640625 C32.91958008 49.20562012 32.91958008 49.20562012 33.84179688 50.77832031 C36.98072994 56.15104437 40.08317055 61.54473286 43.1875 66.9375 C48.66161281 76.44132565 54.16992345 85.92449178 59.70141602 95.39501953 C71.15706633 115.01057027 82.48331987 134.70142738 93.82574463 154.38258362 C95.19898794 156.7652698 96.57255786 159.14776762 97.94616699 161.53024292 C98.91528472 163.2114611 99.88391759 164.89295874 100.85253906 166.57446289 C101.44260742 167.59789795 102.03267578 168.62133301 102.640625 169.67578125 C103.41647949 171.02216675 103.41647949 171.02216675 104.20800781 172.39575195 C105.23225036 174.15538713 106.2764879 175.90347853 107.33642578 177.6418457 C110.4495323 182.93142658 110.38322869 188.96055809 109.6875 194.9375 C107.0049775 203.12381867 102.89260775 207.5463603 95.5 211.75 C88.6296316 213.88995081 82.31828042 214.17381988 75.8125 210.8125 C68.86195299 206.76902589 65.37909179 199.92914345 61.75 193.0625 C56.808624 183.87724189 51.60636364 174.86611851 46.28344727 165.89697266 C45.71424561 164.93194824 45.14504395 163.96692383 44.55859375 162.97265625 C43.79953735 161.69467163 43.79953735 161.69467163 43.02514648 160.39086914 C41.69893603 157.95847475 40.69411889 155.51519994 39.6875 152.9375 C27.0396625 152.46376739 14.39671864 152.13358382 1.74069118 151.98153496 C-4.13852519 151.90649555 -10.00838074 151.78397839 -15.88354492 151.54882812 C-40.4630932 149.1610924 -40.4630932 149.1610924 -62.84735107 156.39846802 C-68.34273114 161.98866526 -70.91899216 169.15884753 -73.15304565 176.54896545 C-75.08127351 182.18425997 -78.21010127 187.07109192 -81.3125 192.125 C-82.31517555 193.86695226 -83.31562737 195.61018915 -84.3125 197.35546875 C-88.93082268 204.84366095 -94.6598463 210.59522113 -103.3125 212.9375 C-110.20243313 213.99289438 -115.47363005 213.17346018 -121.375 209.421875 C-127.02095604 205.09634417 -130.68061561 199.51345397 -131.66796875 192.36328125 C-132.04287002 185.09830265 -130.00023107 181.05572495 -126.3125 174.9375 C-125.85456055 174.15729492 -125.39662109 173.37708984 -124.92480469 172.57324219 C-123.43892901 170.04285019 -121.93894177 167.52118358 -120.4375 165 C-115.36471287 156.44645278 -110.34819663 147.86183428 -105.375 139.25 C-104.76092285 138.1885376 -104.1468457 137.1270752 -103.51416016 136.03344727 C-100.73599126 131.21424424 -98.00067132 126.38245511 -95.37109375 121.48046875 C-92.5581593 116.28275671 -89.47132481 111.28140357 -86.35205078 106.26318359 C-83.02166418 100.83266812 -79.89050143 95.2917814 -76.75 89.75 C-75.34484523 87.27932403 -73.93798727 84.80961894 -72.53125 82.33984375 C-72.00186073 81.40969452 -72.00186073 81.40969452 -71.46177673 80.46075439 C-67.91465918 74.23111869 -64.33562421 68.02004391 -60.75 61.8125 C-60.14003174 60.75603271 -59.53006348 59.69956543 -58.90161133 58.61108398 C-56.38403466 54.25173444 -53.86508761 49.89317894 -51.34521484 45.53515625 C-50.02404406 43.25009816 -48.70332095 40.96478117 -47.38305664 38.67919922 C-46.10128689 36.46115368 -44.8179588 34.24400784 -43.53295898 32.02783203 C-40.83700216 27.36802091 -38.16290733 22.70479222 -35.6171875 17.9609375 C-28.75502585 5.19199821 -28.75502585 5.19199821 -22.3125 0.9375 C-21.405 0.31875 -20.4975 -0.3 -19.5625 -0.9375 C-12.81638379 -3.27269407 -6.49633562 -2.96891356 0 0 Z " fill="#030303" transform="translate(175.3125,49.0625)"/>
<path d="M0 0 C5.61 0 11.22 0 17 0 C21.74402958 12.05499299 26.28257415 24.14837042 30.5625 36.375 C30.84347534 37.17417847 31.12445068 37.97335693 31.41394043 38.79675293 C35.25262063 49.72659381 38.89346583 60.67771076 42.046875 71.828125 C42.67750949 74.83541013 42.67750949 74.83541013 44 76 C44.28496338 75.11892578 44.56992676 74.23785156 44.86352539 73.33007812 C52.8925069 48.61574532 61.72654655 24.27313772 71 0 C76.61 0 82.22 0 88 0 C92.00360478 58.57967286 92.00360478 58.57967286 93.1260376 76.29516602 C93.24658909 78.19621148 93.36911543 80.09713138 93.49169922 81.99804688 C93.82481759 87.3433274 94.09287507 92.64420427 94 98 C89.71 98 85.42 98 81 98 C79.13580169 70.33866421 77.49978421 42.72283707 77 15 C76.71664795 15.93674561 76.4332959 16.87349121 76.14135742 17.83862305 C72.84694705 28.61542441 69.14959068 39.21849775 65.3125 49.8125 C64.69694403 51.51955537 64.08154879 53.22666869 63.46630859 54.93383789 C58.39476068 68.9870832 53.23137276 83.00547518 48 97 C44.37 97 40.74 97 37 97 C36.67837891 96.02466309 36.35675781 95.04932617 36.02539062 94.04443359 C34.52102308 89.48659614 33.01161005 84.93044022 31.5 80.375 C31.22711151 79.5524472 30.95422302 78.72989441 30.67306519 77.88241577 C27.43657101 68.14078618 24.14178725 58.43477432 20.5625 48.8125 C18.19292674 42.42810128 15.98868875 36.03312637 14.0625 29.5 C13.86277588 28.82300049 13.66305176 28.14600098 13.45727539 27.44848633 C12.37430817 23.65351015 11.62075774 19.893502 11 16 C10.95512451 17.1338916 10.91024902 18.2677832 10.86401367 19.43603516 C9.81120449 45.68162337 8.28521055 71.83227835 6 98 C2.04 98 -1.92 98 -6 98 C-6.10071717 87.9786416 -5.72085993 78.05961538 -5.125 68.0625 C-5.05830612 66.91039536 -5.05830612 66.91039536 -4.99026489 65.73501587 C-4.40681643 55.67812785 -3.68136571 45.65249496 -2.68237305 35.62719727 C-1.95828983 28.17051176 -1.60061191 20.71364375 -1.34155273 13.22729492 C-1.31005127 12.3685376 -1.2785498 11.50978027 -1.24609375 10.625 C-1.22216553 9.87476562 -1.1982373 9.12453125 -1.17358398 8.3515625 C-0.96663383 5.54798462 -0.46215936 2.77295619 0 0 Z " fill="#F9F8F8" transform="translate(980,95)"/>
<path d="M0 0 C7.38790033 4.42032356 12.28727716 9.94526797 15.4375 17.9375 C15.7365625 18.66453125 16.035625 19.3915625 16.34375 20.140625 C21.03494953 33.25860886 18.89701647 47.89168532 13.33984375 60.41015625 C9.05821971 67.94291176 2.53366089 73.04964345 -5.5625 75.9375 C-8.2979976 76.26907547 -10.7142206 76.463411 -13.4375 76.4375 C-14.13931396 76.43177979 -14.84112793 76.42605957 -15.56420898 76.42016602 C-21.72346454 76.20866192 -25.82380495 74.79320839 -30.5625 70.9375 C-31.19542969 70.44121094 -31.82835937 69.94492188 -32.48046875 69.43359375 C-41.17444973 61.74062551 -43.77523757 50.65361974 -44.78125 39.515625 C-45.2574991 27.37127292 -42.17584386 15.43716131 -34.1875 6.1875 C-24.49104568 -2.12374656 -12.23622905 -5.7593362 0 0 Z " fill="#010101" transform="translate(574.5625,107.0625)"/>
<path d="M0 0 C1.20333984 -0.02900391 2.40667969 -0.05800781 3.64648438 -0.08789062 C15.15810848 -0.16873942 25.82645299 2.07242537 34.3125 10.3125 C40.61270708 18.27065631 41.18747249 26.46629064 40.3125 36.3125 C38.43318944 43.88600902 33.46644981 50.3688737 27.140625 54.8515625 C18.90696122 59.70658493 11.18752996 60.61324293 1.8125 60.4375 C-2.89 60.375625 -2.89 60.375625 -7.6875 60.3125 C-7.6875 73.1825 -7.6875 86.0525 -7.6875 99.3125 C-11.9775 99.3125 -16.2675 99.3125 -20.6875 99.3125 C-20.6875 66.9725 -20.6875 34.6325 -20.6875 1.3125 C-13.68777043 0.31253863 -7.04880657 0.05573648 0 0 Z " fill="#FAF9F9" transform="translate(464.6875,93.6875)"/>
<path d="M0 0 C5.61 0 11.22 0 17 0 C25.003681 22.79514456 32.93303219 45.61457544 40.71929932 68.48501587 C41.53235625 70.87271629 42.34644565 73.26006538 43.16156006 75.64706421 C44.30751489 79.0045185 45.44933494 82.36334868 46.58984375 85.72265625 C46.93600235 86.73528534 47.28216095 87.74791443 47.6388092 88.79122925 C47.95128098 89.7148526 48.26375275 90.63847595 48.58569336 91.59008789 C48.86021835 92.39748917 49.13474335 93.20489044 49.41758728 94.03675842 C50 96 50 96 50 98 C45.38 98 40.76 98 36 98 C34.57298741 93.90753175 33.14786175 89.8145072 31.72753906 85.71972656 C31.24362265 84.32643703 30.7586014 82.93353072 30.27246094 81.54101562 C29.57457494 79.5413586 28.8806516 77.54036477 28.1875 75.5390625 C27.76855469 74.33459473 27.34960938 73.13012695 26.91796875 71.88916016 C26 69 26 69 26 67 C8.675 67.495 8.675 67.495 -9 68 C-12.3 77.9 -15.6 87.8 -19 98 C-23.62 98 -28.24 98 -33 98 C-25.34264238 74.88524346 -17.56651139 51.81133159 -9.75 28.75 C-9.50915806 28.03943199 -9.26831612 27.32886398 -9.02017593 26.59676361 C-6.0149264 17.73067496 -3.0080288 8.86514614 0 0 Z " fill="#F8F7F7" transform="translate(1117,95)"/>
<path d="M0 0 C5.61 0 11.22 0 17 0 C25.003681 22.79514456 32.93303219 45.61457544 40.71929932 68.48501587 C41.53235625 70.87271629 42.34644565 73.26006538 43.16156006 75.64706421 C44.30751489 79.0045185 45.44933494 82.36334868 46.58984375 85.72265625 C46.93600235 86.73528534 47.28216095 87.74791443 47.6388092 88.79122925 C47.95128098 89.7148526 48.26375275 90.63847595 48.58569336 91.59008789 C48.86021835 92.39748917 49.13474335 93.20489044 49.41758728 94.03675842 C50 96 50 96 50 98 C45.38 98 40.76 98 36 98 C34.57298741 93.90753175 33.14786175 89.8145072 31.72753906 85.71972656 C31.24362265 84.32643703 30.7586014 82.93353072 30.27246094 81.54101562 C29.57457494 79.5413586 28.8806516 77.54036477 28.1875 75.5390625 C27.76855469 74.33459473 27.34960938 73.13012695 26.91796875 71.88916016 C26 69 26 69 26 67 C8.675 67.495 8.675 67.495 -9 68 C-12.3 77.9 -15.6 87.8 -19 98 C-23.62 98 -28.24 98 -33 98 C-25.34264238 74.88524346 -17.56651139 51.81133159 -9.75 28.75 C-9.50915806 28.03943199 -9.26831612 27.32886398 -9.02017593 26.59676361 C-6.0149264 17.73067496 -3.0080288 8.86514614 0 0 Z " fill="#F8F7F7" transform="translate(380,95)"/>
<path d="M0 0 C2.0341542 1.44521813 3.8804999 2.98018484 5.73828125 4.64453125 C6.34285156 5.14597656 6.94742188 5.64742187 7.5703125 6.1640625 C16.83408216 14.45907193 21.08060135 27.14949921 22.01953125 39.27734375 C22.39560444 54.53964744 19.04008058 69.53300515 8.9921875 81.3203125 C0.28681832 90.29725299 -10.18544043 94.59074542 -22.62670898 95.11523438 C-35.05557304 95.28093415 -45.07727351 92.31676704 -54.26171875 83.64453125 C-65.04465346 72.9685701 -69.13115647 59.99382973 -69.51171875 45.01953125 C-69.34354761 30.57210141 -65.04556681 17.58767903 -55.19921875 6.76953125 C-40.68504448 -6.79371437 -17.29259781 -10.36361216 0 0 Z M-40.26171875 9.64453125 C-41.12796875 10.18078125 -41.99421875 10.71703125 -42.88671875 11.26953125 C-51.58444728 19.96725978 -55.14665838 32.28634638 -55.44921875 44.33203125 C-55.25244901 56.29920926 -52.25460601 67.683041 -43.88671875 76.64453125 C-42.71122035 77.68293048 -41.50322921 78.68603178 -40.26171875 79.64453125 C-39.71386719 80.07636719 -39.16601562 80.50820312 -38.6015625 80.953125 C-32.0171375 85.13532022 -23.71731174 84.49192666 -16.26171875 83.64453125 C-9.39533875 81.63181805 -3.42829811 77.47986815 0.73828125 71.64453125 C7.13606055 59.44451062 9.95931296 45.94531615 7.015625 32.29296875 C3.9445337 22.47045002 -0.63894605 14.53725654 -9.26171875 8.64453125 C-14.28515002 6.06964672 -18.60547276 5.1239525 -24.19921875 5.20703125 C-24.90216064 5.2131543 -25.60510254 5.21927734 -26.3293457 5.22558594 C-31.8842028 5.39315327 -35.80404027 6.38392755 -40.26171875 9.64453125 Z " fill="#F7F6F6" transform="translate(585.26171875,99.35546875)"/>
<path d="M0 0 C17.49 0 34.98 0 53 0 C53 3.63 53 7.26 53 11 C39.8 11 26.6 11 13 11 C13 20.9 13 30.8 13 41 C25.54 41 38.08 41 51 41 C51 44.63 51 48.26 51 52 C38.46 52 25.92 52 13 52 C13 63.55 13 75.1 13 87 C27.19 87 41.38 87 56 87 C56 90.63 56 94.26 56 98 C37.52 98 19.04 98 0 98 C0 65.66 0 33.32 0 0 Z " fill="#FAF9F9" transform="translate(904,95)"/>
<path d="M0 0 C-0.71840092 3.79911118 -1.72555405 7.34658827 -3 11 C-3.69222656 10.7834375 -4.38445312 10.566875 -5.09765625 10.34375 C-13.80628498 7.86540507 -23.89844193 5.74215472 -32.66015625 8.984375 C-36.31765784 11.13506559 -38.40941569 13.00469343 -40 17 C-40.44604445 21.60912603 -40.47310756 23.99464643 -38.5 28.1875 C-33.27719844 34.06315175 -26.280743 36.84981088 -19.125 39.75 C-9.70586091 43.7492469 -1.92972168 48.65560219 3 58 C5.51113206 65.48881986 4.75832039 73.29323049 1.5 80.375 C-1.50883585 85.7474202 -4.56806219 89.11696798 -10 92 C-10.74378906 92.40992188 -11.48757813 92.81984375 -12.25390625 93.2421875 C-22.8795196 98.06445334 -37.1017972 97.67189409 -48.0625 94.125 C-51.05517595 92.96571377 -53.31275661 91.7914956 -56 90 C-55.69078116 88.54096742 -55.37751201 87.08279278 -55.0625 85.625 C-54.88847656 84.81289062 -54.71445313 84.00078125 -54.53515625 83.1640625 C-54 81 -54 81 -53 79 C-52.38125 79.268125 -51.7625 79.53625 -51.125 79.8125 C-50.09375 80.204375 -49.0625 80.59625 -48 81 C-47.3296875 81.26425781 -46.659375 81.52851563 -45.96875 81.80078125 C-37.11285624 84.91510389 -26.7188877 85.84720618 -17.8125 82.4375 C-14.36869539 80.57914506 -12.24728769 78.55149109 -10.58984375 74.9921875 C-9.0841073 69.90658758 -9.27930628 65.67069908 -11.375 60.8125 C-17.08387002 54.69585355 -24.54804472 51.70145636 -32.125 48.5 C-41.59257204 44.4848528 -48.62014288 40.38425305 -53.078125 30.64453125 C-55.16989424 24.64398984 -54.78176475 18.1257537 -52.4375 12.25 C-48.44782572 4.51914327 -42.75048563 -0.04033083 -34.640625 -3.1171875 C-23.00405437 -5.93893102 -10.91791114 -4.88146127 0 0 Z " fill="#F7F6F6" transform="translate(1232,98)"/>
<path d="M0 0 C-0.71840092 3.79911118 -1.72555405 7.34658827 -3 11 C-3.69222656 10.7834375 -4.38445313 10.566875 -5.09765625 10.34375 C-13.80628498 7.86540507 -23.89844193 5.74215472 -32.66015625 8.984375 C-36.31765784 11.13506559 -38.40941569 13.00469343 -40 17 C-40.44604445 21.60912603 -40.47310756 23.99464643 -38.5 28.1875 C-33.27719844 34.06315175 -26.280743 36.84981088 -19.125 39.75 C-9.70586091 43.7492469 -1.92972168 48.65560219 3 58 C5.51113206 65.48881986 4.75832039 73.29323049 1.5 80.375 C-1.50883585 85.7474202 -4.56806219 89.11696798 -10 92 C-10.74378906 92.40992188 -11.48757813 92.81984375 -12.25390625 93.2421875 C-22.8795196 98.06445334 -37.1017972 97.67189409 -48.0625 94.125 C-51.05517595 92.96571377 -53.31275661 91.7914956 -56 90 C-55.69078116 88.54096742 -55.37751201 87.08279278 -55.0625 85.625 C-54.88847656 84.81289062 -54.71445312 84.00078125 -54.53515625 83.1640625 C-54 81 -54 81 -53 79 C-52.38125 79.268125 -51.7625 79.53625 -51.125 79.8125 C-50.09375 80.204375 -49.0625 80.59625 -48 81 C-47.3296875 81.26425781 -46.659375 81.52851563 -45.96875 81.80078125 C-37.11285624 84.91510389 -26.7188877 85.84720618 -17.8125 82.4375 C-14.36869539 80.57914506 -12.24728769 78.55149109 -10.58984375 74.9921875 C-9.0841073 69.90658758 -9.27930628 65.67069908 -11.375 60.8125 C-17.08387002 54.69585355 -24.54804472 51.70145636 -32.125 48.5 C-41.59257204 44.4848528 -48.62014288 40.38425305 -53.078125 30.64453125 C-55.16989424 24.64398984 -54.78176475 18.1257537 -52.4375 12.25 C-48.44782572 4.51914327 -42.75048563 -0.04033083 -34.640625 -3.1171875 C-23.00405437 -5.93893102 -10.91791114 -4.88146127 0 0 Z " fill="#F7F6F6" transform="translate(811,98)"/>
<path d="M0 0 C-0.71840092 3.79911118 -1.72555405 7.34658827 -3 11 C-3.69222656 10.7834375 -4.38445313 10.566875 -5.09765625 10.34375 C-13.80628498 7.86540507 -23.89844193 5.74215472 -32.66015625 8.984375 C-36.31765784 11.13506559 -38.40941569 13.00469343 -40 17 C-40.44604445 21.60912603 -40.47310756 23.99464643 -38.5 28.1875 C-33.27719844 34.06315175 -26.280743 36.84981088 -19.125 39.75 C-9.70586091 43.7492469 -1.92972168 48.65560219 3 58 C5.51113206 65.48881986 4.75832039 73.29323049 1.5 80.375 C-1.50883585 85.7474202 -4.56806219 89.11696798 -10 92 C-10.74378906 92.40992188 -11.48757813 92.81984375 -12.25390625 93.2421875 C-22.8795196 98.06445334 -37.1017972 97.67189409 -48.0625 94.125 C-51.05517595 92.96571377 -53.31275661 91.7914956 -56 90 C-55.69078116 88.54096742 -55.37751201 87.08279278 -55.0625 85.625 C-54.88847656 84.81289062 -54.71445312 84.00078125 -54.53515625 83.1640625 C-54 81 -54 81 -53 79 C-52.38125 79.268125 -51.7625 79.53625 -51.125 79.8125 C-50.09375 80.204375 -49.0625 80.59625 -48 81 C-47.3296875 81.26425781 -46.659375 81.52851563 -45.96875 81.80078125 C-37.11285624 84.91510389 -26.7188877 85.84720618 -17.8125 82.4375 C-14.36869539 80.57914506 -12.24728769 78.55149109 -10.58984375 74.9921875 C-9.0841073 69.90658758 -9.27930628 65.67069908 -11.375 60.8125 C-17.08387002 54.69585355 -24.54804472 51.70145636 -32.125 48.5 C-41.59257204 44.4848528 -48.62014288 40.38425305 -53.078125 30.64453125 C-55.16989424 24.64398984 -54.78176475 18.1257537 -52.4375 12.25 C-48.44782572 4.51914327 -42.75048563 -0.04033083 -34.640625 -3.1171875 C-23.00405437 -5.93893102 -10.91791114 -4.88146127 0 0 Z " fill="#F7F6F6" transform="translate(704,98)"/>
<path d="M0 0 C29.04 0 58.08 0 88 0 C87.01 2.31 86.02 4.62 85 7 C84.53580365 9.7696515 84.53580365 9.7696515 84.625 12.4375 C84.61726563 13.30246094 84.60953125 14.16742188 84.6015625 15.05859375 C85.01744199 18.9479004 85.01744199 18.9479004 88 26 C58.96 26 29.92 26 0 26 C0.99 23.36 1.98 20.72 3 18 C3.46150254 15.1203728 3.46150254 15.1203728 3.375 12.4375 C3.38273437 11.56996094 3.39046875 10.70242187 3.3984375 9.80859375 C3.00795755 6.17784608 3.00795755 6.17784608 0 0 Z " fill="#FEFEFE" transform="translate(121,166)"/>
<path d="M0 0 C2.65565787 2.39969682 4.27998553 4.96444189 6.046875 8.06640625 C6.93197754 9.61122681 6.93197754 9.61122681 7.83496094 11.18725586 C8.46692383 12.30108643 9.09888672 13.41491699 9.75 14.5625 C10.41648378 15.72888766 11.08348456 16.89498004 11.75097656 18.06079102 C13.14068394 20.48892898 14.52814342 22.91833074 15.9140625 25.34863281 C19.17183891 31.05693894 22.46289842 36.74605053 25.75 42.4375 C26.67582886 44.04443726 26.67582886 44.04443726 27.62036133 45.68383789 C30.5265552 50.72708672 33.44250414 55.76399495 36.38671875 60.78515625 C36.90459961 61.67082275 37.42248047 62.55648926 37.95605469 63.46899414 C38.91788708 65.11225658 39.88318523 66.75349716 40.85253906 68.39233398 C44 73.77681826 44 73.77681826 44 76 C34.1 76 24.2 76 14 76 C10.720625 70.3075 10.720625 70.3075 7.375 64.5 C1.02297491 53.4830096 -5.36579225 42.48800326 -11.78125 31.5078125 C-12.29945313 30.6199707 -12.81765625 29.73212891 -13.3515625 28.81738281 C-14.55087005 26.76761842 -15.75458783 24.72043249 -16.9609375 22.67480469 C-17.92386719 21.03753418 -17.92386719 21.03753418 -18.90625 19.3671875 C-19.49728516 18.3654248 -20.08832031 17.36366211 -20.69726562 16.33154297 C-22 14 -22 14 -22 13 C-21.3709375 12.91363281 -20.741875 12.82726562 -20.09375 12.73828125 C-13.27325485 11.61865177 -7.18757787 9.82689433 -2.6171875 4.33984375 C-1.37469942 2.55283113 -1.37469942 2.55283113 0 0 Z " fill="#FCFCFC" transform="translate(185,80)"/>
<path d="M0 0 C24.09 0 48.18 0 73 0 C73 3.63 73 7.26 73 11 C63.1 11 53.2 11 43 11 C43 39.71 43 68.42 43 98 C38.71 98 34.42 98 30 98 C30 69.29 30 40.58 30 11 C20.1 11 10.2 11 0 11 C0 7.37 0 3.74 0 0 Z " fill="#FBFBFB" transform="translate(821,95)"/>
<path d="M0 0 C3.8608485 4.49664455 6.81582737 9.41072243 9.8125 14.5 C10.32748047 15.34175781 10.84246094 16.18351562 11.37304688 17.05078125 C11.85451172 17.86933594 12.33597656 18.68789062 12.83203125 19.53125 C13.27264893 20.26923828 13.7132666 21.00722656 14.16723633 21.76757812 C15.25423043 24.68152538 14.95248062 26.04991732 14 29 C12.98699561 31.04094934 11.89566594 33.04381443 10.75390625 35.015625 C10.42684692 35.58478134 10.0997876 36.15393768 9.76281738 36.74034119 C8.7028311 38.58091145 7.63293273 40.41548895 6.5625 42.25 C5.8327171 43.51181647 5.10347099 44.77394353 4.37475586 46.03637695 C2.58483383 49.13280814 0.78640656 52.2241817 -1.01611328 55.31329346 C-1.91844889 56.86019449 -2.81870322 58.40830909 -3.71875 59.95654297 C-11.72507754 73.72507754 -11.72507754 73.72507754 -13 75 C-15.21855264 75.08783542 -17.43988496 75.10694609 -19.66015625 75.09765625 C-20.65685585 75.09553383 -20.65685585 75.09553383 -21.6736908 75.09336853 C-23.80333899 75.08775518 -25.93288339 75.07520054 -28.0625 75.0625 C-29.50325369 75.05748671 -30.94400903 75.05292351 -32.38476562 75.04882812 C-35.92321102 75.03778145 -39.46159539 75.02050792 -43 75 C-37.3169381 63.03737606 -30.66569379 51.72198048 -23.9453125 40.31738281 C-19.97020605 33.53854917 -16.06478109 26.71928893 -12.15039062 19.90527344 C-1.63705956 1.63705956 -1.63705956 1.63705956 0 0 Z " fill="#FCFCFC" transform="translate(144,81)"/>
<path d="M0 0 C4.29 0 8.58 0 13 0 C13 32.34 13 64.68 13 98 C8.71 98 4.42 98 0 98 C0 65.66 0 33.32 0 0 Z " fill="#FBFAFA" transform="translate(725,95)"/>
<path d="M0 0 C3.93405169 2.8611285 6.49959913 5.81129739 8.0625 10.5 C8.68350916 16.55483935 8.2166117 22.19840799 5.0625 27.5 C1.11278508 32.11844972 -3.90987314 35.42882535 -9.9375 36.5 C-15.26577461 36.86925928 -20.60912638 36.82635504 -25.9375 36.5 C-26.9375 35.5 -26.9375 35.5 -27.05102539 31.89819336 C-27.05086625 30.29540144 -27.04517063 28.6926044 -27.03515625 27.08984375 C-27.0337413 26.24780899 -27.03232635 25.40577423 -27.03086853 24.53822327 C-27.02525263 21.83794665 -27.01269748 19.13775172 -27 16.4375 C-26.99498705 14.61132932 -26.99042379 12.78515734 -26.98632812 10.95898438 C-26.97527804 6.47262458 -26.95800279 1.98632616 -26.9375 -2.5 C-17.56712002 -4.467372 -8.48497246 -4.91235248 0 0 Z " fill="#030303" transform="translate(483.9375,107.5)"/>
<path d="M0 0 C2.43847704 3.10565989 4.43219976 6.33948333 6.3984375 9.76171875 C7.04296875 10.88126953 7.6875 12.00082031 8.3515625 13.15429688 C9.02604493 14.33202938 9.70052408 15.50976377 10.375 16.6875 C11.0414422 17.8458323 11.70810698 19.00403657 12.375 20.16210938 C15.9685766 26.41507584 19.49695684 32.69452231 23 39 C8.15 39 -6.7 39 -22 39 C-20.36275677 34.90689191 -18.62252255 31.40265847 -16.4453125 27.59765625 C-15.93108231 26.69737953 -15.93108231 26.69737953 -15.40646362 25.77891541 C-14.68349698 24.51488912 -13.95894969 23.25176572 -13.23291016 21.98950195 C-12.13165988 20.07408361 -11.03615872 18.15546611 -9.94140625 16.23632812 C-6.77677494 10.7107166 -3.57974449 5.26739504 0 0 Z " fill="#FBFBFB" transform="translate(165,117)"/>
<path d="M0 0 C0.66 0.721875 1.32 1.44375 2 2.1875 C8.19579632 8.29652046 14.43455494 10.82400652 23 12 C21.60582632 15.70897259 19.92181521 19.07838312 17.9609375 22.51953125 C17.09082031 24.0519043 17.09082031 24.0519043 16.203125 25.61523438 C15.59984375 26.67033203 14.9965625 27.72542969 14.375 28.8125 C13.76398438 29.88693359 13.15296875 30.96136719 12.5234375 32.06835938 C11.01844115 34.71386076 9.51054209 37.3576625 8 40 C6.02079429 38.09430765 4.50470521 36.31532779 2.875 34.0625 C-1.62955506 28.59171108 -8.24209391 26.98208419 -15 26 C-11.63328743 19.75117742 -8.20013783 13.54279749 -4.6875 7.375 C-4.33816406 6.75931152 -3.98882812 6.14362305 -3.62890625 5.50927734 C-1.12009859 1.12009859 -1.12009859 1.12009859 0 0 Z " fill="#FAFAFA" transform="translate(81,190)"/>
<path d="M0 0 C0.66 0 1.32 0 2 0 C3.51220703 2.17138672 3.51220703 2.17138672 5.2578125 5.1796875 C5.88300781 6.25347656 6.50820312 7.32726562 7.15234375 8.43359375 C7.80332031 9.56925781 8.45429688 10.70492187 9.125 11.875 C9.78371094 13.00292969 10.44242187 14.13085938 11.12109375 15.29296875 C16 23.72751682 16 23.72751682 16 26 C15.3709375 26.08636719 14.741875 26.17273438 14.09375 26.26171875 C4.85203274 27.77880788 -0.51882552 31.34034223 -7 38 C-22 13.84415584 -22 13.84415584 -22 12 C-21.3709375 11.91363281 -20.741875 11.82726562 -20.09375 11.73828125 C-11.19650936 10.27774024 -5.42668686 7.30515538 0 0 Z " fill="#FAFAFA" transform="translate(248,190)"/>
<path d="M0 0 C1.89688753 2.84533129 2.50598464 4.50392576 3.30078125 7.74609375 C5.19642738 14.98867879 7.69910047 22.00835926 10.1875 29.0625 C10.88269387 31.03586812 11.57672523 33.00960415 12.266922 34.98472595 C12.88477899 36.75268578 13.50708339 38.51908951 14.12963867 40.28540039 C15 43 15 43 15 45 C5.43 45 -4.14 45 -14 45 C-12.06175057 37.89308544 -10.0639365 31.07557342 -7.5625 24.1875 C-4.70910984 16.1995153 -2.1848049 8.19641093 0 0 Z " fill="#050505" transform="translate(1125,107)"/>
<path d="M0 0 C1.89688753 2.84533129 2.50598464 4.50392576 3.30078125 7.74609375 C5.19642738 14.98867879 7.69910047 22.00835926 10.1875 29.0625 C10.88269387 31.03586812 11.57672523 33.00960415 12.266922 34.98472595 C12.88477899 36.75268578 13.50708339 38.51908951 14.12963867 40.28540039 C15 43 15 43 15 45 C5.43 45 -4.14 45 -14 45 C-12.06175057 37.89308544 -10.0639365 31.07557342 -7.5625 24.1875 C-4.70910984 16.1995153 -2.1848049 8.19641093 0 0 Z " fill="#050505" transform="translate(388,107)"/>
<path d="M0 0 C3.42484369 2.28322912 4.97163392 4.19326784 6.8125 7.875 C7.46503816 13.09530531 6.62991128 16.44763942 3.8125 20.875 C0.57203856 23.81166818 -2.12264935 24.77454239 -6.5 25.1875 C-10.94636282 24.81068959 -12.82698122 23.77726622 -16.1875 20.875 C-19.097872 16.509442 -19.8381249 13.07999921 -19.1875 7.875 C-14.90138553 -0.37973899 -8.93720649 -3.15430817 0 0 Z " fill="#FAFAFA" transform="translate(268.1875,227.125)"/>
<path d="M0 0 C3.42484369 2.28322912 4.97163392 4.19326784 6.8125 7.875 C7.46503816 13.09530531 6.62991128 16.44763942 3.8125 20.875 C0.57203856 23.81166818 -2.12264935 24.77454239 -6.5 25.1875 C-10.94636282 24.81068959 -12.82698122 23.77726622 -16.1875 20.875 C-19.097872 16.509442 -19.8381249 13.07999921 -19.1875 7.875 C-14.90138553 -0.37973899 -8.93720649 -3.15430817 0 0 Z " fill="#FAFAFA" transform="translate(73.1875,227.125)"/>
<path d="M0 0 C3.42484369 2.28322912 4.97163392 4.19326784 6.8125 7.875 C7.46503816 13.09530531 6.62991128 16.44763942 3.8125 20.875 C0.57203856 23.81166818 -2.12264935 24.77454239 -6.5 25.1875 C-10.94636282 24.81068959 -12.82698122 23.77726622 -16.1875 20.875 C-19.097872 16.509442 -19.8381249 13.07999921 -19.1875 7.875 C-14.90138553 -0.37973899 -8.93720649 -3.15430817 0 0 Z " fill="#FAFAFA" transform="translate(234.1875,167.125)"/>
<path d="M0 0 C3.42484369 2.28322912 4.97163392 4.19326784 6.8125 7.875 C7.46503816 13.09530531 6.62991128 16.44763942 3.8125 20.875 C0.57203856 23.81166818 -2.12264935 24.77454239 -6.5 25.1875 C-10.94636282 24.81068959 -12.82698122 23.77726622 -16.1875 20.875 C-19.097872 16.509442 -19.8381249 13.07999921 -19.1875 7.875 C-14.90138553 -0.37973899 -8.93720649 -3.15430817 0 0 Z " fill="#FAFAFA" transform="translate(108.1875,167.125)"/>
<path d="M0 0 C3.42484369 2.28322912 4.97163392 4.19326784 6.8125 7.875 C7.46503816 13.09530531 6.62991128 16.44763942 3.8125 20.875 C0.57203856 23.81166818 -2.12264935 24.77454239 -6.5 25.1875 C-10.94636282 24.81068959 -12.82698122 23.77726622 -16.1875 20.875 C-19.097872 16.509442 -19.8381249 13.07999921 -19.1875 7.875 C-14.90138553 -0.37973899 -8.93720649 -3.15430817 0 0 Z " fill="#FAFAFA" transform="translate(171.1875,58.125)"/>
</svg>
